<svg data-v-0dd9719b="" version="1.0" xmlns="http://www.w3.org/2000/svg" xmlns:xlink="http://www.w3.org/1999/xlink" width="100%" height="100%" viewBox="0 0 340.000000 250.000000" preserveAspectRatio="xMidYMid meet" color-interpolation-filters="sRGB" style="margin: auto;"> <rect data-v-0dd9719b="" x="0" y="0" width="100%" height="100%" fill="#ffffff" fill-opacity="1" class="background"></rect> <rect data-v-0dd9719b="" x="0" y="0" width="100%" height="100%" fill="url(#watermark)" fill-opacity="1" class="watermarklayer"></rect> <g data-v-0dd9719b="" fill="#1582c7" class="icon-text-wrapper icon-svg-group iconsvg" transform="translate(48.41999816894531,95)"><g class="iconsvg-imagesvg" transform="translate(0,0)"><g><rect fill="#1582c7" fill-opacity="0" stroke-width="2" x="0" y="0" width="60" height="60" class="image-rect"></rect> <svg filter="url(#colors3270156746)" x="0" y="0" width="60" height="60" filtersec="colorsf9809328204" class="image-svg-svg primary" style="overflow: visible;"><svg xmlns="http://www.w3.org/2000/svg" viewBox="0 0 40.090003967285156 40.090003967285156"><g><g fill="#000000"><path d="M15.035 20.04l5.013-5.013 5.013 5.013-5.013 5.013zM20.04 2.5l3.76 3.76h2.51L20.04 0l-6.26 6.26h2.51l3.75-3.76zM28.81 8.77v2.51l2.51-.01-2.51-2.5zM6.26 16.29v-2.51L0 20.04l6.26 6.27V23.8L2.5 20.04l3.76-3.75zM11.28 8.77l-2.51 2.5 2.51.01V8.77zM20.04 37.58l-3.75-3.75h-2.51l6.26 6.26 6.27-6.26H23.8l-3.76 3.75zM11.28 31.32v-2.51H8.77l2.51 2.51zM33.83 13.78v2.51l3.75 3.75-3.75 3.76v2.51l6.26-6.27-6.26-6.26zM28.81 31.32l2.51-2.51h-2.51v2.51z"></path><path d="M20 15l2.51-2.5h5v-5h-5L20 5l-2.5 2.51h-5v5h5zm0-8.77L23.8 10 20 13.78 16.29 10zM32.57 17.54v-5h-5v5L25.06 20l2.5 2.51v5h5v-5L35.08 20zm-2.5 6.26L26.31 20l3.76-3.75L33.83 20z"></path><path d="M15 20l-2.5-2.5v-5h-5v5L5 20l2.51 2.51v5h5v-5zm-5 3.8L6.26 20 10 16.29 13.78 20zM20 25.06l-2.5 2.5h-5v5h5l2.5 2.52 2.51-2.51h5v-5h-5zm0 8.77l-3.75-3.76L20 26.31l3.76 3.76z"></path></g></g></svg></svg> <defs><filter id="colors3270156746"><feColorMatrix type="matrix" values="0 0 0 0 0.47265625  0 0 0 0 0.7109375  0 0 0 0 0.3203125  0 0 0 1 0" class="icon-fecolormatrix"></feColorMatrix></filter> <filter id="colorsf9809328204"><feColorMatrix type="matrix" values="0 0 0 0 0.99609375  0 0 0 0 0.99609375  0 0 0 0 0.99609375  0 0 0 1 0" class="icon-fecolormatrix"></feColorMatrix></filter> <filter id="colorsb403941436"><feColorMatrix type="matrix" values="0 0 0 0 0  0 0 0 0 0  0 0 0 0 0  0 0 0 1 0" class="icon-fecolormatrix"></feColorMatrix></filter></defs></g></g> <g transform="translate(67,12.17500114440918)"><g data-gra="path-name" fill-rule="" class="tp-name iconsvg-namesvg"><g transform="scale(1)"><g><path d="M19.28 0.44Q14.25 0.44 10.48-1.73 6.71-3.9 4.68-7.94 2.66-11.98 2.66-17.41L2.66-17.41Q2.66-22.83 4.68-26.85 6.71-30.87 10.48-33.04 14.25-35.21 19.28-35.21L19.28-35.21Q22.54-35.21 25.4-34.25 28.26-33.29 30.48-31.46L30.48-31.46Q31.12-30.97 31.36-30.43 31.61-29.88 31.61-29.1L31.61-29.1Q31.61-28.01 31.02-27.27 30.43-26.53 29.59-26.53L29.59-26.53Q28.6-26.53 27.57-27.22L27.57-27.22Q25.45-28.8 23.62-29.42 21.8-30.03 19.58-30.03L19.58-30.03Q14.45-30.03 11.81-26.83 9.17-23.62 9.17-17.41L9.17-17.41Q9.17-11.15 11.81-7.94 14.45-4.73 19.58-4.73L19.58-4.73Q21.7-4.73 23.5-5.38 25.3-6.02 27.57-7.55L27.57-7.55Q28.06-7.84 28.55-8.04 29.05-8.24 29.59-8.24L29.59-8.24Q30.43-8.24 31.02-7.5 31.61-6.76 31.61-5.67L31.61-5.67Q31.61-4.93 31.36-4.36 31.12-3.8 30.48-3.3L30.48-3.3Q28.26-1.48 25.4-0.52 22.54 0.44 19.28 0.44L19.28 0.44ZM40.34 0.3Q38.91 0.3 38.05-0.59 37.18-1.48 37.18-2.91L37.18-2.91 37.18-31.86Q37.18-33.29 38.05-34.15 38.91-35.01 40.34-35.01L40.34-35.01Q41.82-35.01 42.68-34.15 43.55-33.29 43.55-31.86L43.55-31.86 43.55-2.91Q43.55-1.48 42.68-0.59 41.82 0.3 40.34 0.3L40.34 0.3ZM62.43 0.25Q60.95 0.25 60.09-0.62 59.23-1.48 59.23-2.91L59.23-2.91 59.23-29.54 50.25-29.54Q47.29-29.54 47.29-32.15L47.29-32.15Q47.29-34.77 50.25-34.77L50.25-34.77 74.56-34.77Q77.52-34.77 77.52-32.15L77.52-32.15Q77.52-29.54 74.56-29.54L74.56-29.54 65.59-29.54 65.59-2.91Q65.59-1.48 64.73-0.62 63.86 0.25 62.43 0.25L62.43 0.25ZM109.08-3.99Q109.68-3.11 109.68-2.27L109.68-2.27Q109.68-1.13 108.76-0.39 107.85 0.35 106.62 0.35L106.62 0.35Q105.83 0.35 105.12-0.02 104.4-0.39 103.91-1.13L103.91-1.13 97.35-11.1Q96.36-12.67 95.25-13.32 94.14-13.96 92.37-13.96L92.37-13.96 87.53-13.96 87.53-2.91Q87.53-1.43 86.7-0.57 85.86 0.3 84.43 0.3L84.43 0.3Q83 0.3 82.13-0.57 81.27-1.43 81.27-2.91L81.27-2.91 81.27-31.76Q81.27-33.19 82.08-33.98 82.9-34.77 84.33-34.77L84.33-34.77 96.66-34.77Q102.58-34.77 105.66-32.13 108.74-29.49 108.74-24.51L108.74-24.51Q108.74-20.47 106.45-17.88 104.15-15.29 99.96-14.55L99.96-14.55Q101.39-14.2 102.48-13.32 103.56-12.43 104.6-10.85L104.6-10.85 109.08-3.99ZM95.77-18.84Q99.37-18.84 101.05-20.19 102.72-21.55 102.72-24.36L102.72-24.36Q102.72-27.22 101.05-28.53 99.37-29.84 95.77-29.84L95.77-29.84 87.48-29.84 87.48-18.84 95.77-18.84ZM146.66-3.8Q146.96-3.16 146.96-2.52L146.96-2.52Q146.96-1.38 146.05-0.59 145.13 0.2 143.95 0.2L143.95 0.2Q143.16 0.2 142.47-0.22 141.78-0.64 141.39-1.53L141.39-1.53 138.43-8.14 121.07-8.14 118.11-1.53Q117.72-0.64 117.02-0.22 116.33 0.2 115.5 0.2L115.5 0.2Q114.36 0.2 113.42-0.59 112.49-1.38 112.49-2.52L112.49-2.52Q112.49-3.16 112.78-3.8L112.78-3.8 126.39-33.04Q126.84-34.03 127.75-34.55 128.66-35.06 129.7-35.06L129.7-35.06Q130.73-35.06 131.65-34.55 132.56-34.03 133-33.04L133-33.04 146.66-3.8ZM129.75-27.72L123.24-13.07 136.26-13.07 129.75-27.72ZM178.03-4.54Q178.82-3.6 178.82-2.66L178.82-2.66Q178.82-1.48 177.9-0.59 176.99 0.3 175.81 0.3L175.81 0.3Q174.58 0.3 173.64-0.79L173.64-0.79 163.63-13.22 153.57-0.79Q152.68 0.25 151.45 0.25L151.45 0.25Q150.26 0.25 149.35-0.62 148.44-1.48 148.44-2.66L148.44-2.66Q148.44-3.65 149.18-4.54L149.18-4.54 159.93-17.65 149.62-30.23Q148.88-31.02 148.88-32.1L148.88-32.1Q148.88-33.29 149.77-34.15 150.66-35.01 151.84-35.01L151.84-35.01Q153.07-35.01 154.01-33.93L154.01-33.93 163.63-22.04 173.24-33.93Q174.13-35.01 175.36-35.01L175.36-35.01Q176.55-35.01 177.46-34.15 178.37-33.29 178.37-32.1L178.37-32.1Q178.37-31.02 177.63-30.23L177.63-30.23 167.33-17.65 178.03-4.54Z" transform="translate(-2.6600000858306885, 35.209999084472656)"></path></g> <!----> <!----> <!----> <!----> <!----> <!----> <!----></g></g> <!----></g></g><defs v-gra="od"></defs></svg>